<?xml version="1.0" ?><svg viewBox="0 0 32 32" xmlns="http://www.w3.org/2000/svg"><defs><style>.cls-1{fill:#9ac3f4;}.cls-2{fill:#2f7ded;}</style></defs><title/><g id="Halfmoon"><path class="cls-1" d="M17,6.12A1,1,0,0,0,16,6.58,1,1,0,0,0,16,7.74a8,8,0,0,1-7.78,13,1,1,0,0,0-1,1.63A10,10,0,1,0,17,6.12Z"/><path class="cls-2" d="M14.94,25.9A10,10,0,0,1,7.3,22.36a1,1,0,0,1,1-1.63A8,8,0,0,0,16,7.74,1,1,0,0,1,16,6.58,1,1,0,0,1,17,6.12,10,10,0,0,1,14.94,25.9Zm-4-3A8,8,0,0,0,19.2,9.14,10,10,0,0,1,11,22.85Z"/></g></svg>