<?xml version="1.0" ?><svg viewBox="0 0 32 32" xmlns="http://www.w3.org/2000/svg"><defs><style>.cls-1{fill:#9ac3f4;}.cls-2{fill:#fff;}.cls-3{fill:#2f7ded;}</style></defs><title/><g data-name="cloud moon" id="cloud_moon-2"><path class="cls-1" d="M29.89,19.86A6,6,0,0,0,24,15h0a7.12,7.12,0,0,0-.92.07A7.5,7.5,0,0,0,9.88,17.13,5,5,0,0,0,6.11,23a5.08,5.08,0,0,0,5.06,4H24a6,6,0,0,0,5.89-7.14Z"/><path class="cls-2" d="M9.31,2.14a1,1,0,0,0-1.05.42,1,1,0,0,0,0,1.13A4,4,0,0,1,5,10a4.14,4.14,0,0,1-.87-.09,1,1,0,0,0-1,.41,1,1,0,0,0,0,1.14A6,6,0,0,0,14,8,6,6,0,0,0,9.31,2.14Z"/><path class="cls-3" d="M29.89,19.86A6,6,0,0,0,24,15h0a7.12,7.12,0,0,0-.92.07A7.5,7.5,0,0,0,9.88,17.13,5,5,0,0,0,6.11,23a5.08,5.08,0,0,0,5.06,4H24a6,6,0,0,0,5.89-7.14Zm-2.81,3.69A4,4,0,0,1,24,25H11.17a3.08,3.08,0,0,1-3.1-2.36,3,3,0,0,1,.53-2.45A3,3,0,0,1,10.75,19a1,1,0,0,0,.89-.77,5.5,5.5,0,0,1,10.1-1.54,1,1,0,0,0,1.14.45A3.8,3.8,0,0,1,24,17h0a4,4,0,0,1,3.08,6.55Z"/><path class="cls-3" d="M14,8A6,6,0,0,0,9.31,2.14a1,1,0,0,0-1.05.42,1,1,0,0,0,0,1.13A4,4,0,0,1,5,10a4.14,4.14,0,0,1-.87-.09,1,1,0,0,0-1,.41,1,1,0,0,0,0,1.14A6,6,0,0,0,14,8ZM11,6a5.37,5.37,0,0,0,0-.7,4,4,0,0,1-4.3,6.47A6,6,0,0,0,11,6Z"/></g></svg>