<?xml version="1.0" ?><svg viewBox="0 0 32 32" xmlns="http://www.w3.org/2000/svg"><defs><style>.cls-1{fill:#9ac3f4;}.cls-2{fill:#2f7ded;}</style></defs><title/><g data-name="cloud fog" id="cloud_fog"><path class="cls-1" d="M9.17,17H22A6,6,0,0,0,22,5h0a5.72,5.72,0,0,0-.92.08A7.5,7.5,0,0,0,7.88,7.13,5,5,0,0,0,4.11,13,5.08,5.08,0,0,0,9.17,17Z"/><path class="cls-2" d="M27,19H24.09a1,1,0,0,0,0,2H27a1,1,0,0,0,0-2Z"/><path class="cls-2" d="M21,20a1,1,0,0,0-1-1H5a1,1,0,0,0,0,2H20A1,1,0,0,0,21,20Z"/><path class="cls-2" d="M25,23H13a1,1,0,0,0,0,2H25a1,1,0,0,0,0-2Z"/><path class="cls-2" d="M10,24a1,1,0,0,0-1-1H7a1,1,0,0,0,0,2H9A1,1,0,0,0,10,24Z"/><path class="cls-2" d="M23,27H20a1,1,0,0,0,0,2h3a1,1,0,0,0,0-2Z"/><path class="cls-2" d="M16,27H9a1,1,0,0,0,0,2h7a1,1,0,0,0,0-2Z"/><path class="cls-2" d="M22,17H9.17a5.08,5.08,0,0,1-5.06-4A5,5,0,0,1,7.88,7.13a7.5,7.5,0,0,1,13.17-2A5.72,5.72,0,0,1,22,5h0a6,6,0,1,1,0,12ZM15,4A5.49,5.49,0,0,0,9.64,8.25,1,1,0,0,1,8.75,9,3,3,0,0,0,6.6,10.19a3,3,0,0,0-.53,2.45A3.08,3.08,0,0,0,9.17,15H22a4,4,0,1,0,0-8h0a3.71,3.71,0,0,0-1.1.16,1,1,0,0,1-1.14-.45A5.44,5.44,0,0,0,15,4Z"/></g></svg>