<?xml version="1.0" ?><svg viewBox="0 0 32 32" xmlns="http://www.w3.org/2000/svg"><defs><style>.cls-1{fill:#fff;}.cls-2{fill:#9ac3f4;}.cls-3{fill:#2f7ded;}</style></defs><title/><g data-name="Cloud rain sun" id="Cloud_rain_sun"><path class="cls-1" d="M17.51,9.61A6,6,0,1,0,8,16.49a1,1,0,0,0,.66.25,1,1,0,0,0,.58-.19A2.88,2.88,0,0,1,10.75,16a1,1,0,0,0,.89-.77,5.53,5.53,0,0,1,5-4.24,1,1,0,0,0,.86-1.4Z"/><path class="cls-2" d="M29.89,16.86A6,6,0,0,0,24,12a7.43,7.43,0,0,0-.94.07A7.52,7.52,0,0,0,17,9h-.47a7.56,7.56,0,0,0-6.65,5.12,4.75,4.75,0,0,0-1.76.79,5,5,0,0,0-2,5.12,5.09,5.09,0,0,0,5.06,4H24a6,6,0,0,0,5.89-7.14Z"/><path class="cls-3" d="M4,13H3a1,1,0,0,1,0-2H4a1,1,0,0,1,0,2Z"/><path class="cls-3" d="M17.66,7.34A1,1,0,0,1,17,7.05a1,1,0,0,1,0-1.41l.71-.71a1,1,0,1,1,1.41,1.41l-.71.71A1,1,0,0,1,17.66,7.34Z"/><path class="cls-3" d="M12,5a1,1,0,0,1-1-1V3a1,1,0,0,1,2,0V4A1,1,0,0,1,12,5Z"/><path class="cls-3" d="M6.34,7.34a1,1,0,0,1-.7-.29l-.71-.71A1,1,0,0,1,6.34,4.93l.71.71a1,1,0,0,1,0,1.41A1,1,0,0,1,6.34,7.34Z"/><path class="cls-3" d="M10,30a.94.94,0,0,1-.55-.17,1,1,0,0,1-.28-1.38l2-3a1,1,0,0,1,1.66,1.1l-2,3A1,1,0,0,1,10,30Z"/><path class="cls-3" d="M14,30a.94.94,0,0,1-.55-.17,1,1,0,0,1-.28-1.38l2-3a1,1,0,1,1,1.66,1.1l-2,3A1,1,0,0,1,14,30Z"/><path class="cls-3" d="M18,30a.94.94,0,0,1-.55-.17,1,1,0,0,1-.28-1.38l2-3a1,1,0,0,1,1.66,1.1l-2,3A1,1,0,0,1,18,30Z"/><path class="cls-3" d="M22,30a.94.94,0,0,1-.55-.17,1,1,0,0,1-.28-1.38l2-3a1,1,0,0,1,1.66,1.1l-2,3A1,1,0,0,1,22,30Z"/><path class="cls-3" d="M29.89,16.86A6,6,0,0,0,24,12a7.43,7.43,0,0,0-.94.07A7.51,7.51,0,0,0,17.19,9a6,6,0,1,0-9.91,6.67A5,5,0,0,0,11.17,24H24a6,6,0,0,0,5.89-7.14ZM12,8a4,4,0,0,1,2.94,1.29c-.13,0-.25.09-.37.13l-.34.12a7.7,7.7,0,0,0-.71.33l-.21.11a6.13,6.13,0,0,0-.84.56l-.22.18c-.19.16-.37.32-.54.49l-.26.27c-.14.16-.29.33-.42.51l-.22.3c-.13.19-.25.4-.37.6s-.11.19-.15.28a6.76,6.76,0,0,0-.41,1,5,5,0,0,0-.85.28l-.1,0-.06,0A4,4,0,0,1,12,8ZM27.07,20.55A4,4,0,0,1,24,22H11.17a3.08,3.08,0,0,1-3.1-2.36,3,3,0,0,1,1.2-3.09A2.88,2.88,0,0,1,10.75,16a1,1,0,0,0,.89-.77,4.7,4.7,0,0,1,.28-.85A5.53,5.53,0,0,1,16.67,11h.26a5.55,5.55,0,0,1,4.81,2.71,1,1,0,0,0,1.14.45A3.55,3.55,0,0,1,24,14a4,4,0,0,1,3.08,6.55Z"/></g></svg>