<?xml version="1.0" ?><svg viewBox="0 0 32 32" xmlns="http://www.w3.org/2000/svg"><defs><style>.cls-1{fill:#2f7ded;}.cls-2{fill:#9ac3f4;}.cls-3{fill:#fff;}</style></defs><title/><g data-name="cloud rain moon" id="cloud_rain_moon"><path class="cls-1" d="M10,30a.94.94,0,0,1-.55-.17,1,1,0,0,1-.28-1.38l2-3a1,1,0,0,1,1.66,1.1l-2,3A1,1,0,0,1,10,30Z"/><path class="cls-1" d="M14,30a.94.94,0,0,1-.55-.17,1,1,0,0,1-.28-1.38l2-3a1,1,0,1,1,1.66,1.1l-2,3A1,1,0,0,1,14,30Z"/><path class="cls-1" d="M18,30a.94.94,0,0,1-.55-.17,1,1,0,0,1-.28-1.38l2-3a1,1,0,0,1,1.66,1.1l-2,3A1,1,0,0,1,18,30Z"/><path class="cls-1" d="M22,30a.94.94,0,0,1-.55-.17,1,1,0,0,1-.28-1.38l2-3a1,1,0,0,1,1.66,1.1l-2,3A1,1,0,0,1,22,30Z"/><path class="cls-2" d="M29.44,16.86A6,6,0,0,0,23.54,12h0a5.5,5.5,0,0,0-.91.08A7.5,7.5,0,0,0,9.43,14.13,5,5,0,0,0,6.55,16a5,5,0,0,0-.9,4,5.1,5.1,0,0,0,5.07,4H23.54a6,6,0,0,0,5.9-7.14Z"/><path class="cls-3" d="M7.6,2a1,1,0,0,0-1,1.48A3,3,0,0,1,7,5,3,3,0,0,1,3.65,8a1,1,0,0,0-1,.43,1,1,0,0,0,0,1.05A5,5,0,1,0,7.6,2Z"/><path class="cls-1" d="M23.54,24H10.72a5.1,5.1,0,0,1-5.07-4,5,5,0,0,1,.9-4,5,5,0,0,1,2.88-1.86A7.5,7.5,0,0,1,22.6,12.08a5.5,5.5,0,0,1,.91-.08h0a6,6,0,0,1,4.62,9.83A6,6,0,0,1,23.54,24Zm-7-13a5.47,5.47,0,0,0-5.35,4.25,1,1,0,0,1-.9.77,2.94,2.94,0,0,0-2.14,1.17,3,3,0,0,0-.54,2.45A3.09,3.09,0,0,0,10.72,22H23.54a4,4,0,0,0,3.93-4.78A4,4,0,0,0,23.54,14h0a3.8,3.8,0,0,0-1.1.16,1,1,0,0,1-1.14-.45A5.43,5.43,0,0,0,16.54,11Z"/><path class="cls-1" d="M7,12A5,5,0,0,1,2.65,9.46a1,1,0,0,1,0-1.05,1,1,0,0,1,1-.43A3,3,0,0,0,7,5a3,3,0,0,0-.39-1.48A1,1,0,0,1,7.6,2,5,5,0,0,1,7,12ZM5.7,9.7A3,3,0,0,0,9,4.76,1.93,1.93,0,0,1,9,5,5,5,0,0,1,5.7,9.7Z"/></g></svg>