<?xml version="1.0" ?><svg viewBox="0 0 32 32" xmlns="http://www.w3.org/2000/svg"><defs><style>.cls-1{fill:#9ac3f4;}.cls-2{fill:#2f7ded;}</style></defs><title/><g data-name="Cloud Snow" id="Cloud_Snow"><path class="cls-1" d="M27.89,9.86A6,6,0,0,0,22,5h0a6.84,6.84,0,0,0-.91.07A7.55,7.55,0,0,0,15,2,7.47,7.47,0,0,0,7.88,7.13,5,5,0,0,0,4.11,13a5.08,5.08,0,0,0,5.06,4H22a6,6,0,0,0,5.89-7.14Z"/><path class="cls-2" d="M11.5,25h-.79l.56-.56a.5.5,0,0,0-.71-.71l-.56.56V23.5a.5.5,0,0,0-1,0v.79l-.56-.56a.5.5,0,0,0-.71.71l.56.56H7.5a.5.5,0,0,0,0,1h.79l-.56.56a.51.51,0,0,0,0,.71.5.5,0,0,0,.36.14.49.49,0,0,0,.35-.14L9,26.71v.79a.5.5,0,0,0,1,0v-.79l.56.56a.49.49,0,0,0,.35.14.5.5,0,0,0,.36-.14.51.51,0,0,0,0-.71L10.71,26h.79a.5.5,0,0,0,0-1Z"/><path class="cls-2" d="M17.5,25h-.79l.56-.56a.5.5,0,0,0-.71-.71l-.56.56V23.5a.5.5,0,0,0-1,0v.79l-.56-.56a.5.5,0,0,0-.71.71l.56.56H13.5a.5.5,0,0,0,0,1h.79l-.56.56a.51.51,0,0,0,0,.71.5.5,0,0,0,.36.14.49.49,0,0,0,.35-.14l.56-.56v.79a.5.5,0,0,0,1,0v-.79l.56.56a.49.49,0,0,0,.35.14.5.5,0,0,0,.36-.14.51.51,0,0,0,0-.71L16.71,26h.79a.5.5,0,0,0,0-1Z"/><path class="cls-2" d="M23.5,25h-.79l.56-.56a.5.5,0,0,0-.71-.71l-.56.56V23.5a.5.5,0,0,0-1,0v.79l-.56-.56a.5.5,0,0,0-.71.71l.56.56H19.5a.5.5,0,0,0,0,1h.79l-.56.56a.51.51,0,0,0,0,.71.5.5,0,0,0,.36.14.49.49,0,0,0,.35-.14l.56-.56v.79a.5.5,0,0,0,1,0v-.79l.56.56a.49.49,0,0,0,.35.14.5.5,0,0,0,.36-.14.51.51,0,0,0,0-.71L22.71,26h.79a.5.5,0,0,0,0-1Z"/><path class="cls-2" d="M13,21.71l.56.56a.49.49,0,0,0,.35.14.5.5,0,0,0,.36-.14.51.51,0,0,0,0-.71L13.71,21h.79a.5.5,0,0,0,0-1h-.79l.56-.56a.5.5,0,0,0-.71-.71l-.56.56V18.5a.5.5,0,0,0-1,0v.79l-.56-.56a.5.5,0,0,0-.71.71l.56.56H10.5a.5.5,0,0,0,0,1h.79l-.56.56a.51.51,0,0,0,0,.71.5.5,0,0,0,.36.14.49.49,0,0,0,.35-.14l.56-.56v.79a.5.5,0,0,0,1,0Z"/><path class="cls-2" d="M19,21.71l.56.56a.49.49,0,0,0,.35.14.5.5,0,0,0,.36-.14.51.51,0,0,0,0-.71L19.71,21h.79a.5.5,0,0,0,0-1h-.79l.56-.56a.5.5,0,0,0-.71-.71l-.56.56V18.5a.5.5,0,0,0-1,0v.79l-.56-.56a.5.5,0,0,0-.71.71l.56.56H16.5a.5.5,0,0,0,0,1h.79l-.56.56a.51.51,0,0,0,0,.71.5.5,0,0,0,.36.14.49.49,0,0,0,.35-.14l.56-.56v.79a.5.5,0,0,0,1,0Z"/><path class="cls-2" d="M26.5,20h-.79l.56-.56a.5.5,0,0,0-.71-.71l-.56.56V18.5a.5.5,0,0,0-1,0v.79l-.56-.56a.5.5,0,0,0-.71.71l.56.56H22.5a.5.5,0,0,0,0,1h.79l-.56.56a.51.51,0,0,0,0,.71.5.5,0,0,0,.36.14.49.49,0,0,0,.35-.14l.56-.56v.79a.5.5,0,0,0,1,0v-.79l.56.56a.49.49,0,0,0,.35.14.5.5,0,0,0,.36-.14.51.51,0,0,0,0-.71L25.71,21h.79a.5.5,0,0,0,0-1Z"/><path class="cls-2" d="M22,17A6,6,0,0,0,22,5h0a6.84,6.84,0,0,0-.91.07A7.55,7.55,0,0,0,15,2,7.47,7.47,0,0,0,7.88,7.13,5,5,0,0,0,4.11,13a5.08,5.08,0,0,0,5.06,4ZM6.07,12.64a3,3,0,0,1,.53-2.45A3,3,0,0,1,8.75,9a1,1,0,0,0,.89-.77,5.5,5.5,0,0,1,10.1-1.54,1,1,0,0,0,1.14.45A3.71,3.71,0,0,1,22,7h0a4,4,0,0,1,0,8H9.17A3.08,3.08,0,0,1,6.07,12.64Z"/></g></svg>