<?xml version="1.0" ?><svg viewBox="0 0 32 32" xmlns="http://www.w3.org/2000/svg"><defs><style>.cls-1{fill:#9ac3f4;}.cls-2{fill:#2f7ded;}</style></defs><title/><g id="cloud"><path class="cls-1" d="M27.89,16.86A6,6,0,0,0,22,12a6.84,6.84,0,0,0-.91.07A7.51,7.51,0,0,0,7.88,14.13,5,5,0,0,0,4.11,20a5.08,5.08,0,0,0,5.06,4H22a6,6,0,0,0,5.89-7.14Z"/><path class="cls-2" d="M22,24H9.17a5.08,5.08,0,0,1-5.06-4,5,5,0,0,1,3.77-5.91,7.51,7.51,0,0,1,13.18-2.06A6.84,6.84,0,0,1,22,12a6,6,0,1,1,0,12ZM15,11a5.49,5.49,0,0,0-5.36,4.25,1,1,0,0,1-.89.77A3,3,0,0,0,6.6,17.19a3,3,0,0,0-.53,2.45A3.08,3.08,0,0,0,9.17,22H22a4,4,0,1,0,0-8h0a3.8,3.8,0,0,0-1.1.16,1,1,0,0,1-1.14-.45A5.44,5.44,0,0,0,15,11Z"/></g></svg>