<?xml version="1.0" ?><svg viewBox="0 0 32 32" xmlns="http://www.w3.org/2000/svg"><defs><style>.cls-1{fill:#9ac3f4;}.cls-2{fill:#2f7ded;}</style></defs><title/><g data-name="cloud rain" id="cloud_rain"><path class="cls-1" d="M27.89,9.86A6,6,0,0,0,22,5h0a7.12,7.12,0,0,0-.92.07A7.5,7.5,0,0,0,7.88,7.13,5,5,0,0,0,4.11,13a5.08,5.08,0,0,0,5.06,4H22a6,6,0,0,0,5.89-7.14Z"/><path class="cls-2" d="M9.55,19.17a1,1,0,0,0-1.38.28l-2,3a1,1,0,0,0,.28,1.38A.94.94,0,0,0,7,24a1,1,0,0,0,.83-.45l2-3A1,1,0,0,0,9.55,19.17Z"/><path class="cls-2" d="M14.55,19.17a1,1,0,0,0-1.38.28l-4,6a1,1,0,0,0,.28,1.38A.94.94,0,0,0,10,27a1,1,0,0,0,.83-.45l4-6A1,1,0,0,0,14.55,19.17Z"/><path class="cls-2" d="M18.17,19.45l-4,6a1,1,0,0,0,.28,1.38A.94.94,0,0,0,15,27a1,1,0,0,0,.83-.45l4-6a1,1,0,0,0-1.66-1.1Z"/><path class="cls-2" d="M23.17,19.45l-2,3a1,1,0,0,0,.28,1.38A.94.94,0,0,0,22,24a1,1,0,0,0,.83-.45l2-3a1,1,0,0,0-1.66-1.1Z"/><path class="cls-2" d="M22,17H9.17a5.08,5.08,0,0,1-5.06-4A5,5,0,0,1,7.88,7.13,7.5,7.5,0,0,1,21.05,5.07,7.12,7.12,0,0,1,22,5h0a6,6,0,1,1,0,12ZM15,4A5.49,5.49,0,0,0,9.64,8.25,1,1,0,0,1,8.75,9,3,3,0,0,0,6.6,10.19a3,3,0,0,0-.53,2.46A3.09,3.09,0,0,0,9.17,15H22a4,4,0,1,0,0-8h0a3.8,3.8,0,0,0-1.1.16,1,1,0,0,1-1.14-.45A5.44,5.44,0,0,0,15,4Z"/></g></svg>